<svg width="265" height="130" viewBox="0 0 265 130" fill="none" xmlns="http://www.w3.org/2000/svg">
<path d="M252.318 130C259.671 130 265.703 124.022 264.934 116.709C263.617 104.197 260.445 91.9146 255.497 80.2512C248.807 64.4788 239 50.1477 226.638 38.0761C214.276 26.0045 199.599 16.4288 183.447 9.89566C167.295 3.36255 149.983 -7.46234e-07 132.5 0C115.017 7.46234e-07 97.7051 3.36255 81.5529 9.89566C65.4006 16.4288 50.7244 26.0045 38.362 38.0761C25.9996 50.1477 16.1932 64.4788 9.50274 80.2512C4.55523 91.9146 1.38327 104.197 0.0663627 116.709C-0.703425 124.022 5.32922 130 12.6819 130C20.0345 130 25.9054 124.013 26.8665 116.722C28.0654 107.628 30.4934 98.7085 34.1022 90.2009C39.4546 77.5831 47.2997 66.1182 57.1896 56.4609C67.0795 46.8036 78.8205 39.143 91.7423 33.9165C104.664 28.69 118.514 26 132.5 26C146.486 26 160.336 28.69 173.258 33.9165C186.179 39.143 197.921 46.8036 207.81 56.4609C217.7 66.1182 225.545 77.5831 230.898 90.2009C234.507 98.7085 236.935 107.628 238.133 116.722C239.095 124.013 244.965 130 252.318 130Z" fill="#F1F1F1"/>
</svg>
