<svg width="336" height="65" viewBox="0 0 336 65" fill="none" xmlns="http://www.w3.org/2000/svg">
<path d="M320.088 3.8381H328.385V34.9143H320.088V3.8381ZM326.156 16.1572H336V22.9048H326.156V16.1572ZM303.618 6.87144H312.658C312.658 11.9889 311.647 16.4667 309.624 20.3048C307.602 24.1016 304.609 27.2794 300.647 29.8381C296.684 32.3556 291.793 34.2746 285.973 35.5952L282.939 28.9714C287.768 27.9397 291.689 26.5572 294.703 24.8238C297.757 23.0905 300.007 21.0889 301.451 18.8191C302.896 16.5079 303.618 14.0524 303.618 11.4524V6.87144ZM285.973 6.87144H309.191V13.4333H285.973V6.87144ZM290.988 37.2048H299.161V42.6524H320.212V37.2048H328.385V60.6048H290.988V37.2048ZM299.161 48.9667V54.0429H320.212V48.9667H299.161Z" fill="#2E39D6"/>
<path d="M240.16 12.9381H246.723V19.3762C246.723 22.6778 246.372 25.9174 245.671 29.0952C245.01 32.273 243.999 35.2651 242.637 38.0714C241.316 40.8365 239.644 43.2921 237.622 45.4381C235.599 47.5429 233.246 49.2143 230.563 50.4524L225.858 43.9524C228.252 42.8381 230.336 41.3936 232.111 39.619C233.927 37.8444 235.413 35.8635 236.569 33.6762C237.766 31.4476 238.653 29.1159 239.231 26.6809C239.851 24.2048 240.16 21.7698 240.16 19.3762V12.9381ZM241.956 12.9381H248.457V19.3762C248.457 21.646 248.746 23.9571 249.324 26.3095C249.943 28.6206 250.83 30.8286 251.986 32.9333C253.142 34.9968 254.607 36.854 256.382 38.5048C258.157 40.1555 260.262 41.4762 262.697 42.4667L258.177 49.0286C255.453 47.8317 253.08 46.2222 251.057 44.2C249.035 42.1778 247.342 39.846 245.98 37.2048C244.618 34.5635 243.607 31.7365 242.946 28.7238C242.286 25.6698 241.956 22.554 241.956 19.3762V12.9381ZM228.149 9.34761H260.345V16.1571H228.149V9.34761ZM265.669 3.89999H273.904V61.2238H265.669V3.89999Z" fill="#2E39D6"/>
<path d="M175.34 5.69525H215.337V22.781H183.76V31.4476H175.402V16.5905H206.978V12.1953H175.34V5.69525ZM175.402 27.4857H216.699V33.9857H175.402V27.4857ZM169.396 38.1953H221.281V44.7572H169.396V38.1953ZM191.128 40.6095H199.301V61.2857H191.128V40.6095Z" fill="#2E39D6"/>
<path d="M149.154 3.89999H157.389V61.2238H149.154V3.89999ZM155.532 26.2476H165.624V33.0571H155.532V26.2476ZM112.129 12.319H145.563V18.8809H112.129V12.319ZM128.97 22.1619C131.735 22.1619 134.212 22.7603 136.4 23.9571C138.587 25.1127 140.3 26.7016 141.539 28.7238C142.818 30.746 143.458 33.0984 143.458 35.7809C143.458 38.4635 142.818 40.8365 141.539 42.9C140.3 44.9222 138.587 46.5317 136.4 47.7286C134.253 48.8841 131.777 49.4619 128.97 49.4619C126.204 49.4619 123.707 48.8841 121.478 47.7286C119.29 46.5317 117.557 44.9222 116.277 42.9C115.039 40.8365 114.42 38.4635 114.42 35.7809C114.42 33.0984 115.039 30.746 116.277 28.7238C117.557 26.7016 119.29 25.1127 121.478 23.9571C123.707 22.7603 126.204 22.1619 128.97 22.1619ZM128.97 28.8476C127.649 28.8476 126.493 29.1159 125.503 29.6524C124.512 30.1889 123.728 30.973 123.15 32.0048C122.572 33.0365 122.283 34.2952 122.283 35.7809C122.283 37.2254 122.572 38.4841 123.15 39.5571C123.728 40.5889 124.512 41.3936 125.503 41.9714C126.493 42.5079 127.649 42.7762 128.97 42.7762C130.249 42.7762 131.385 42.5079 132.375 41.9714C133.366 41.3936 134.15 40.5889 134.728 39.5571C135.306 38.4841 135.595 37.2254 135.595 35.7809C135.595 34.2952 135.306 33.0365 134.728 32.0048C134.15 30.973 133.366 30.1889 132.375 29.6524C131.385 29.1159 130.249 28.8476 128.97 28.8476ZM124.76 4.82856H133.056V14.8571H124.76V4.82856Z" fill="#2E39D6"/>
<path d="M3.0957 16.8969C3.0957 8.41972 9.95286 1.54761 18.4116 1.54761H60.5303C68.9891 1.54761 75.8462 8.41972 75.8462 16.8969V26.4364C75.8462 34.9136 68.9891 41.7857 60.5303 41.7857H18.4116C9.95286 41.7857 3.0957 34.9136 3.0957 26.4364V16.8969Z" fill="url(#paint0_linear_693_387)"/>
<path d="M9.28711 30.2555C9.28711 22.0931 15.9061 15.4762 24.071 15.4762H54.8707C63.0356 15.4762 69.6546 22.0931 69.6546 30.2555V34.7445C69.6546 42.9069 63.0356 49.5238 54.8707 49.5238H24.071C15.9061 49.5238 9.28711 42.9069 9.28711 34.7445V30.2555Z" fill="url(#paint1_linear_693_387)"/>
<path d="M0 45.4183V14.9388C0 13.5261 1.03952 12.381 2.32182 12.381C3.60413 12.381 4.64365 13.5261 4.64365 14.9388V45.4183C4.64349 46.8308 3.60403 47.9762 2.32182 47.9762C1.03962 47.9762 0.000160265 46.8308 0 45.4183Z" fill="#2E39D6"/>
<path d="M74.2983 46.9659V16.4864C74.2983 15.0738 75.3379 13.9286 76.6202 13.9286C77.9025 13.9286 78.942 15.0738 78.942 16.4864V46.9659C78.9418 48.3785 77.9024 49.5238 76.6202 49.5238C75.338 49.5238 74.2985 48.3785 74.2983 46.9659Z" fill="#2E39D6"/>
<path d="M0 31.9799C0 30.5577 0.325044 28.9303 1.7545 28.9303L76.4546 29.0408C77.8841 29.0408 78.942 30.5577 78.942 31.9799V54.6993C78.942 60.3882 74.3068 65 68.589 65H10.3531C4.63522 65 0 60.3882 0 54.6993V31.9799Z" fill="#2E39D6"/>
<path d="M62.1183 28.9452V34.0476H16.8237V28.9452H62.1183ZM73.7655 17.4648V16.5828C73.7655 10.2424 68.5509 5.10241 62.1183 5.10241H16.8237C10.3912 5.10241 5.17653 10.2424 5.17653 16.5828V17.4648C5.17653 23.8053 10.3912 28.9452 16.8237 28.9452V34.0476L16.389 34.0426C7.4428 33.819 0.231851 26.7114 0.0050552 17.8933L0 17.4648V16.5828C6.85483e-08 7.56766 7.29841 0.232263 16.389 0.00498282L16.8237 0H62.1183L62.5531 0.00498282C71.6436 0.232262 78.942 7.56766 78.942 16.5828V17.4648L78.8037 18.493C78.5769 27.3112 71.366 34.4187 62.4198 34.6424L62.1183 34.0476V28.9452C68.5509 28.9452 73.7655 23.8053 73.7655 17.4648Z" fill="#2E39D6"/>
<path d="M51.0801 32.5C51.0801 39.3378 45.8825 44.881 39.4709 44.881C33.0594 44.881 27.8618 39.3378 27.8618 32.5C27.8618 25.6622 33.0594 20.119 39.4709 20.119C45.8825 20.119 51.0801 25.6622 51.0801 32.5Z" fill="url(#paint2_linear_693_387)"/>
<defs>
<linearGradient id="paint0_linear_693_387" x1="39.471" y1="1.54761" x2="39.471" y2="41.7857" gradientUnits="userSpaceOnUse">
<stop stop-color="#A8C7FA"/>
<stop offset="0.514908" stop-color="#556DF4"/>
</linearGradient>
<linearGradient id="paint1_linear_693_387" x1="39.4708" y1="15.4762" x2="39.4708" y2="87.0936" gradientUnits="userSpaceOnUse">
<stop stop-color="#A8C7FA"/>
<stop offset="0.550028" stop-color="#92AFF8"/>
<stop offset="1" stop-color="#556DF4"/>
</linearGradient>
<linearGradient id="paint2_linear_693_387" x1="39.4709" y1="20.119" x2="38.6967" y2="53.1311" gradientUnits="userSpaceOnUse">
<stop offset="0.0731857" stop-color="#A8C7FA"/>
<stop offset="0.966084" stop-color="#556DF4"/>
</linearGradient>
</defs>
</svg>
