<svg width="170" height="170" viewBox="0 0 170 170" fill="none" xmlns="http://www.w3.org/2000/svg">
<path d="M170 85C170 131.944 131.944 170 85 170C38.0558 170 0 131.944 0 85C0 38.0558 38.0558 0 85 0C131.944 0 170 38.0558 170 85Z" fill="white"/>
<path d="M4.85126 57.2268C8.32719 64.2358 13.3164 68.6737 18.4814 71.4301C25.338 75.089 32.6272 75.8432 37.29 75.4257L37.7327 75.3816L37.9053 75.3675C39.6807 75.2638 41.2447 76.5698 41.4404 78.3577C41.6357 80.1453 40.3914 81.7591 38.6359 82.0419L38.4643 82.0654L37.9118 82.1198C32.1133 82.6425 23.4795 81.718 15.3159 77.3616C10.4197 74.7487 5.7362 70.9196 1.9624 65.5173C2.78574 62.6903 3.75049 59.9237 4.85126 57.2268Z" fill="#4B4B4B"/>
<path d="M167 96C167 134.66 135.436 166 96.5 166C57.5639 166 26 134.66 26 96C26 57.3401 57.5639 26 96.5 26C135.436 26 167 57.3401 167 96Z" fill="url(#paint0_linear_342_351)"/>
<path d="M79.9557 77.587C79.6441 76.4104 78.4851 75.6377 77.2572 75.8331C75.9478 76.0417 75.0557 77.2727 75.2641 78.5822L75.2894 78.7688C75.5168 80.6808 74.4815 82.022 73.3694 82.4427C72.8101 82.6542 72.1613 82.6716 71.4654 82.3649C70.7545 82.0515 69.8458 81.3288 68.9836 79.8156L68.8514 79.6083C68.1452 78.617 66.7886 78.3025 65.7083 78.918C64.5562 79.5744 64.1545 81.0401 64.8107 82.1923L65.0499 82.5975C66.2662 84.5828 67.792 85.994 69.5276 86.7592C71.3941 87.5819 73.3497 87.5843 75.0681 86.9345C78.4752 85.6459 80.6623 81.9492 80.0063 77.8271L79.9557 77.587ZM60.9745 70.8751C57.1261 70.3478 54.1911 70.7843 51.8709 72.0016C49.417 73.2891 47.9984 75.278 46.9645 76.9314C46.2615 78.0558 46.6027 79.5374 47.7271 80.2405C48.8514 80.9435 50.333 80.6022 51.0361 79.4779C51.9546 78.009 52.8142 76.9301 54.1022 76.2542C55.3693 75.5895 57.4013 75.1401 60.9736 75.7308L61.2175 75.759C62.4322 75.8353 63.5311 74.9803 63.734 73.7537C63.9502 72.4454 63.0651 71.2096 61.7568 70.9933L60.9745 70.8751ZM89.6099 61.8193C85.761 61.2919 82.8256 61.7292 80.5053 62.9467C78.0514 64.2343 76.6328 66.2231 75.5989 67.8765C74.8962 69.0009 75.2381 70.4816 76.3624 71.1846C77.4868 71.8876 78.9675 71.5464 79.6705 70.4221C80.589 68.9533 81.4487 67.8752 82.7367 67.1993C83.9245 66.5761 85.7846 66.1416 88.9562 66.5765L89.608 66.676C90.9163 66.8923 92.1528 66.0069 92.3693 64.6988C92.5857 63.3905 91.7003 62.1539 90.3921 61.9375L89.6099 61.8193Z" fill="#4B4B4B"/>
<path d="M111.867 122.511C119.613 121.387 125.511 118.674 129.824 114.813C134.136 110.954 136.659 106.133 137.963 101.132C140.455 91.5762 138.575 81.1275 136.088 74.195L135.846 73.5355L135.781 73.3752C135.071 71.7445 133.199 70.9395 131.516 71.5728C129.832 72.2062 128.955 74.0455 129.496 75.7395L129.553 75.9028L129.769 76.4894C131.973 82.643 133.491 91.6361 131.457 99.4363C130.425 103.394 128.5 106.975 125.341 109.803C122.183 112.629 117.585 114.887 110.901 115.858C109.064 116.124 107.791 117.83 108.057 119.667C108.324 121.504 110.03 122.778 111.867 122.511Z" fill="#4B4B4B"/>
<defs>
<linearGradient id="paint0_linear_342_351" x1="51.875" y1="43.8723" x2="137.004" y2="151.325" gradientUnits="userSpaceOnUse">
<stop stop-color="white"/>
<stop offset="1" stop-color="#A5C8FF"/>
</linearGradient>
</defs>
</svg>
