<svg width="39" height="38" viewBox="0 0 39 38" fill="none" xmlns="http://www.w3.org/2000/svg">
<mask id="mask0_254_320" style="mask-type:alpha" maskUnits="userSpaceOnUse" x="8" y="7" width="24" height="24">
<rect x="8" y="7" width="24" height="24" fill="#D9D9D9"/>
</mask>
<g mask="url(#mask0_254_320)">
<path d="M13.85 24.1C14.7 23.45 15.65 22.9375 16.7 22.5625C17.75 22.1875 18.85 22 20 22C21.15 22 22.25 22.1875 23.3 22.5625C24.35 22.9375 25.3 23.45 26.15 24.1C26.7333 23.4167 27.1875 22.6417 27.5125 21.775C27.8375 20.9083 28 19.9833 28 19C28 16.7833 27.2208 14.8958 25.6625 13.3375C24.1042 11.7792 22.2167 11 20 11C17.7833 11 15.8958 11.7792 14.3375 13.3375C12.7792 14.8958 12 16.7833 12 19C12 19.9833 12.1625 20.9083 12.4875 21.775C12.8125 22.6417 13.2667 23.4167 13.85 24.1ZM20 20C19.0167 20 18.1875 19.6625 17.5125 18.9875C16.8375 18.3125 16.5 17.4833 16.5 16.5C16.5 15.5167 16.8375 14.6875 17.5125 14.0125C18.1875 13.3375 19.0167 13 20 13C20.9833 13 21.8125 13.3375 22.4875 14.0125C23.1625 14.6875 23.5 15.5167 23.5 16.5C23.5 17.4833 23.1625 18.3125 22.4875 18.9875C21.8125 19.6625 20.9833 20 20 20ZM20 29C18.6167 29 17.3167 28.7375 16.1 28.2125C14.8833 27.6875 13.825 26.975 12.925 26.075C12.025 25.175 11.3125 24.1167 10.7875 22.9C10.2625 21.6833 10 20.3833 10 19C10 17.6167 10.2625 16.3167 10.7875 15.1C11.3125 13.8833 12.025 12.825 12.925 11.925C13.825 11.025 14.8833 10.3125 16.1 9.7875C17.3167 9.2625 18.6167 9 20 9C21.3833 9 22.6833 9.2625 23.9 9.7875C25.1167 10.3125 26.175 11.025 27.075 11.925C27.975 12.825 28.6875 13.8833 29.2125 15.1C29.7375 16.3167 30 17.6167 30 19C30 20.3833 29.7375 21.6833 29.2125 22.9C28.6875 24.1167 27.975 25.175 27.075 26.075C26.175 26.975 25.1167 27.6875 23.9 28.2125C22.6833 28.7375 21.3833 29 20 29ZM20 27C20.8833 27 21.7167 26.8708 22.5 26.6125C23.2833 26.3542 24 25.9833 24.65 25.5C24 25.0167 23.2833 24.6458 22.5 24.3875C21.7167 24.1292 20.8833 24 20 24C19.1167 24 18.2833 24.1292 17.5 24.3875C16.7167 24.6458 16 25.0167 15.35 25.5C16 25.9833 16.7167 26.3542 17.5 26.6125C18.2833 26.8708 19.1167 27 20 27ZM20 18C20.4333 18 20.7917 17.8583 21.075 17.575C21.3583 17.2917 21.5 16.9333 21.5 16.5C21.5 16.0667 21.3583 15.7083 21.075 15.425C20.7917 15.1417 20.4333 15 20 15C19.5667 15 19.2083 15.1417 18.925 15.425C18.6417 15.7083 18.5 16.0667 18.5 16.5C18.5 16.9333 18.6417 17.2917 18.925 17.575C19.2083 17.8583 19.5667 18 20 18Z" fill="#7079F6"/>
</g>
</svg>
