<svg width="24" height="18" viewBox="0 0 24 18" fill="none" xmlns="http://www.w3.org/2000/svg">
<g clip-path="url(#clip0_254_415)">
<path d="M-0.00585938 0.0112305H23.9906V18.0112H-0.00585938V0.0112305Z" fill="black"/>
<path fill-rule="evenodd" clip-rule="evenodd" d="M-0.00585938 0.0112305H23.9941V18.0112H-0.00585938V0.0112305Z" fill="white"/>
<path fill-rule="evenodd" clip-rule="evenodd" d="M2.62354 5.47833L5.11985 1.73454L5.74369 2.15067L3.24738 5.89447L2.62354 5.47833ZM3.5593 6.10253L6.05561 2.35874L6.67946 2.77487L4.18315 6.51867L3.5593 6.10253ZM4.49507 6.72673L6.99138 2.98294L7.61522 3.39907L5.11891 7.14287L4.49507 6.72673Z" fill="black"/>
<path fill-rule="evenodd" clip-rule="evenodd" d="M16.3481 14.6332L18.8445 10.8894L19.4683 11.3056L16.972 15.0494L16.3481 14.6332ZM17.2839 15.2574L19.7802 11.5136L20.4041 11.9298L17.9078 15.6736L17.2839 15.2574ZM18.2197 15.8816L20.716 12.1378L21.3398 12.554L18.8435 16.2978L18.2197 15.8816Z" fill="black"/>
<path fill-rule="evenodd" clip-rule="evenodd" d="M20.2994 14.79L17.1802 12.7093L17.3882 12.3973L20.5074 14.478L20.2994 14.79Z" fill="white"/>
<path fill-rule="evenodd" clip-rule="evenodd" d="M8.23877 6.51935C8.90083 5.52643 9.93014 4.83724 11.1002 4.60338C12.2704 4.36952 13.4854 4.61016 14.4781 5.27235C15.4709 5.93455 16.1599 6.96405 16.3937 8.13439C16.6275 9.30473 16.387 10.52 15.7249 11.5129L8.23877 6.51935Z" fill="#CD2E3A"/>
<path fill-rule="evenodd" clip-rule="evenodd" d="M8.2385 6.51939C7.57644 7.5123 7.33585 8.72761 7.56966 9.89795C7.80347 11.0683 8.49253 12.0978 9.48525 12.76C10.478 13.4222 11.693 13.6628 12.8632 13.429C14.0333 13.1951 15.0626 12.5059 15.7246 11.513C16.0557 11.0165 16.176 10.4089 16.059 9.82371C15.9421 9.23854 15.5976 8.72379 15.1013 8.39269C14.6049 8.0616 13.9974 7.94128 13.4123 8.05821C12.8272 8.17513 12.3126 8.51973 11.9816 9.01619L8.2385 6.51939Z" fill="#0047A0"/>
<path d="M11.9815 9.01614C12.6708 7.98232 12.3917 6.58531 11.3581 5.89584C10.3245 5.20637 8.92773 5.48552 8.23839 6.51934C7.54905 7.55316 7.82815 8.95016 8.86177 9.63964C9.89538 10.3291 11.2921 10.05 11.9815 9.01614Z" fill="#CD2E3A"/>
<path fill-rule="evenodd" clip-rule="evenodd" d="M5.13037 16.2993L2.63406 12.5555L3.2579 12.1393L5.75422 15.8831L5.13037 16.2993ZM6.06614 15.6751L3.56982 11.9313L4.19367 11.5151L6.68998 15.2589L6.06614 15.6751ZM7.0019 15.0509L4.50559 11.3071L5.12943 10.8909L7.62575 14.6347L7.0019 15.0509Z" fill="black"/>
<path fill-rule="evenodd" clip-rule="evenodd" d="M18.8545 7.14429L16.3582 3.40049L16.982 2.98436L19.4783 6.72815L18.8545 7.14429ZM19.7903 6.52009L17.2939 2.77629L17.9178 2.36016L20.4141 6.10395L19.7903 6.52009ZM20.726 5.89589L18.2297 2.15209L18.8536 1.73596L21.3499 5.47975L20.726 5.89589Z" fill="black"/>
<path fill-rule="evenodd" clip-rule="evenodd" d="M5.70188 13.439L4.76611 14.0632L4.55809 13.7512L5.49385 13.127L5.70188 13.439ZM18.4907 4.90824L17.399 5.63647L17.1909 5.32449L18.2827 4.59625L18.4907 4.90824ZM20.3622 3.65984L19.4264 4.28404L19.2184 3.97205L20.1542 3.34785L20.3622 3.65984Z" fill="white"/>
</g>
<defs>
<clipPath id="clip0_254_415">
<path d="M0 4C0 1.79086 1.79086 0 4 0H20C22.2091 0 24 1.79086 24 4V14C24 16.2091 22.2091 18 20 18H4C1.79086 18 0 16.2091 0 14V4Z" fill="white"/>
</clipPath>
</defs>
</svg>
