<svg width="29" height="41" viewBox="0 0 29 41" fill="none" xmlns="http://www.w3.org/2000/svg">
<path d="M12.9905 7.39355C13.095 7.39586 13.1788 7.48049 13.1829 7.58496L13.5051 15.9688C13.5095 16.079 13.6028 16.1653 13.7131 16.1611L21.6614 15.8574L21.6624 15.8584C21.849 20.7173 18.0475 24.8069 13.1721 24.9932C8.29685 25.1792 4.19303 21.3911 4.00611 16.5322C3.81941 11.6734 7.62017 7.58395 12.4954 7.39746C12.6612 7.39112 12.8265 7.39004 12.9905 7.39355ZM14.6047 6.00098C19.1047 6.0568 22.8188 9.62797 22.9934 14.168C22.9994 14.3245 22.9999 14.4801 22.9963 14.6348C22.994 14.7393 22.9094 14.8232 22.8049 14.8271L14.718 15.1367C14.6077 15.1409 14.5143 15.0547 14.51 14.9443L14.1751 6.21191C14.1707 6.09976 14.2592 6.00569 14.3713 6.00391L14.6047 6.00098Z" fill="#7079F6"/>
<path d="M9.20463 33.472H10.0446V34.304C10.0446 34.7147 9.99929 35.1253 9.90863 35.536C9.82329 35.9467 9.69529 36.3333 9.52463 36.696C9.35396 37.0533 9.13796 37.3733 8.87663 37.656C8.62063 37.9387 8.32196 38.16 7.98062 38.32L7.38062 37.48C7.68996 37.336 7.95662 37.1467 8.18062 36.912C8.40996 36.6773 8.59929 36.416 8.74863 36.128C8.90329 35.84 9.01796 35.5413 9.09263 35.232C9.16729 34.9173 9.20463 34.608 9.20463 34.304V33.472ZM9.42863 33.472H10.2686V34.304C10.2686 34.5813 10.306 34.8667 10.3806 35.16C10.4553 35.4533 10.5646 35.736 10.7086 36.008C10.858 36.28 11.0446 36.528 11.2686 36.752C11.498 36.9707 11.7646 37.1493 12.0686 37.288L11.4766 38.136C11.1353 37.976 10.8366 37.7627 10.5806 37.496C10.33 37.224 10.1166 36.9173 9.94062 36.576C9.76996 36.2293 9.64196 35.864 9.55663 35.48C9.47129 35.0907 9.42863 34.6987 9.42863 34.304V33.472ZM7.66862 33.008H11.7406V33.888H7.66862V33.008ZM12.2766 32.304H13.3486V39.712H12.2766V32.304ZM13.1166 35.128H14.4206V36H13.1166V35.128ZM16.404 32.752H17.284V33.552C17.284 34.0427 17.2067 34.504 17.052 34.936C16.9027 35.3627 16.6733 35.736 16.364 36.056C16.06 36.376 15.6707 36.616 15.196 36.776L14.628 35.952C15.0493 35.8133 15.3907 35.6213 15.652 35.376C15.9133 35.1253 16.1027 34.8427 16.22 34.528C16.3427 34.208 16.404 33.8827 16.404 33.552V32.752ZM16.62 32.752H17.484V33.56C17.484 33.7947 17.516 34.0267 17.58 34.256C17.644 34.48 17.7453 34.6933 17.884 34.896C18.0227 35.0933 18.1987 35.272 18.412 35.432C18.6253 35.5867 18.8813 35.712 19.18 35.808L18.636 36.64C18.172 36.4853 17.7907 36.256 17.492 35.952C17.1987 35.6427 16.98 35.2827 16.836 34.872C16.692 34.4613 16.62 34.024 16.62 33.56V32.752ZM19.508 32.304H20.572V37.72H19.508V32.304ZM20.276 34.448H21.556V35.32H20.276V34.448ZM15.804 38.728H20.836V39.584H15.804V38.728ZM15.804 37.2H16.876V39.184H15.804V37.2Z" fill="#7079F6"/>
</svg>
