<svg width="24" height="24" viewBox="0 0 24 24" fill="none" xmlns="http://www.w3.org/2000/svg">
<g clip-path="url(#clip0_265_304)">
<path d="M11.5096 1.15825C9.365 1.25551 7.29748 1.98664 5.56851 3.25913C3.83954 4.53163 2.52681 6.28833 1.7964 8.30701C1.06598 10.3257 0.950683 12.5157 1.4651 14.5999C1.97951 16.6841 3.10054 18.5689 4.68634 20.0159C6.27214 21.4629 8.25146 22.4071 10.3739 22.729C12.4964 23.0509 14.6667 22.736 16.6102 21.8243C18.5538 20.9126 20.1832 19.4449 21.2925 17.6069C22.4017 15.7689 22.941 13.6433 22.8419 11.4988C22.7783 10.0748 22.4345 8.67729 21.8304 7.38621C21.2263 6.09513 20.3736 4.93579 19.3212 3.97446C18.2687 3.01312 17.0371 2.26866 15.6967 1.78363C14.3563 1.29859 12.9335 1.0825 11.5096 1.14771V1.15825Z" fill="url(#paint0_radial_265_304)"/>
<path d="M11.5042 1.01084C9.33068 1.1091 7.23509 1.84973 5.48251 3.13906C3.72992 4.42838 2.39907 6.20848 1.65824 8.25423C0.917421 10.3 0.799925 12.5195 1.3206 14.632C1.84128 16.7446 2.97674 18.6552 4.5834 20.1224C6.19005 21.5896 8.1957 22.5473 10.3467 22.8745C12.4977 23.2017 14.6975 22.8837 16.6677 21.9606C18.638 21.0376 20.2902 19.551 21.4155 17.6888C22.5408 15.8266 23.0886 13.6726 22.9896 11.4991C22.8568 8.58494 21.5725 5.84272 19.4189 3.87505C17.2652 1.90739 14.4185 0.875279 11.5042 1.00556V1.01084ZM12.7915 11.6837C14.7488 13.4881 15.8198 14.4588 15.8198 14.4588C19.2649 17.3288 18.0884 19.9509 16.7694 20.8636C15.7094 21.5706 14.4665 21.9537 13.1925 21.9662C13.1484 21.9729 13.1034 21.9706 13.0602 21.9596C13.017 21.9485 12.9764 21.9288 12.941 21.9017C12.9055 21.8747 12.8759 21.8407 12.8539 21.802C12.8318 21.7632 12.8178 21.7204 12.8126 21.6761C12.8126 21.4281 13.1661 21.3648 13.1661 21.3648C16.4212 20.7264 15.4663 18.5897 14.3162 17.5029C13.8361 17.0439 9.30421 13.1346 9.30421 13.1346C4.98862 9.44154 5.33155 6.51347 5.33155 6.51347C5.5373 2.94177 8.66584 2.05544 11.0347 2.2612C11.309 2.28758 11.462 2.45641 11.4145 2.68327C11.367 2.91013 10.9977 2.9576 10.9977 2.9576C10.3211 2.94003 9.65172 3.10011 9.05625 3.42188C7.15169 4.70389 7.7162 6.88805 10.2591 9.31491C10.5757 9.62091 10.9186 9.94275 11.2668 10.2698C11.2668 10.2698 11.7785 10.7183 12.7915 11.6837ZM11.3143 20.9164C11.3143 21.2698 10.486 21.4176 9.52052 21.3226C8.07689 21.2199 6.702 20.6663 5.59006 19.7399C4.52002 18.7764 3.74604 17.5285 3.35841 16.1418C2.99966 14.8967 2.83084 13.4459 3.44283 13.5566C3.6222 13.5936 3.93874 14.3955 4.27639 14.9758C4.50235 15.4107 4.81262 15.7963 5.18911 16.1101C5.31045 16.1998 5.71667 15.2766 6.32866 14.7543C6.67687 14.4641 7.062 14.3638 7.12531 15.2291C7.19917 16.2842 7.00925 17.5504 7.31525 17.5504C7.62124 17.5504 8.25961 17.3288 9.68935 17.2075C10.2169 17.1653 10.5335 17.2655 10.0217 17.9883C9.64769 18.5578 9.16984 19.0517 8.61309 19.4444C9.83179 20.5734 11.2879 20.4363 11.3143 20.9164ZM12.2745 9.83723C12.1771 9.38458 12.1628 8.918 12.2323 8.46024C12.3765 7.52427 12.6611 6.61541 13.0764 5.76432C13.604 4.51396 12.3694 3.78063 12.5488 3.32163C12.8232 2.69909 13.6884 3.49046 14.6591 3.54849C15.4874 3.59597 15.9886 3.5485 16.6323 3.63818C17.487 3.75425 18.5104 4.03914 18.9642 4.57727C19.4179 5.1154 18.7479 5.66409 17.9776 5.28951C17.4184 5.01517 16.7114 5.18399 17.1229 5.7696C17.4326 6.15812 17.8807 6.41152 18.3733 6.47656C19.7714 6.84586 19.803 8.18591 18.8534 8.88231C17.7718 9.6684 16.685 9.34658 16.2471 7.7955C16.0256 7.01996 15.4769 6.62954 14.9176 6.84585C14.3584 7.06216 14.6908 8.08566 15.1181 9.02475C15.9622 11.1878 13.8572 11.1351 13.6145 11.0876C13.2971 11.0223 13.0039 10.8704 12.7674 10.6488C12.5309 10.4272 12.3603 10.1445 12.2745 9.83195V9.83723Z" fill="url(#paint1_radial_265_304)"/>
</g>
<defs>
<radialGradient id="paint0_radial_265_304" cx="0" cy="0" r="1" gradientUnits="userSpaceOnUse" gradientTransform="translate(13.6945 8.44706) scale(10.3109 10.3109)">
<stop stop-color="white"/>
<stop offset="1" stop-color="#CF9C51"/>
</radialGradient>
<radialGradient id="paint1_radial_265_304" cx="0" cy="0" r="1" gradientUnits="userSpaceOnUse" gradientTransform="translate(11.1419 5.30807) scale(23.0965 23.0965)">
<stop stop-color="#00C0F3"/>
<stop offset="0.22" stop-color="#0097D6"/>
<stop offset="0.28" stop-color="#0086CA"/>
<stop offset="0.37" stop-color="#0074BD"/>
<stop offset="0.46" stop-color="#0069B5"/>
<stop offset="0.57" stop-color="#0066B3"/>
</radialGradient>
<clipPath id="clip0_265_304">
<rect width="22" height="22" fill="white" transform="translate(1 1)"/>
</clipPath>
</defs>
</svg>
