<svg width="36" height="59" viewBox="0 0 36 59" fill="none" xmlns="http://www.w3.org/2000/svg">
<g clip-path="url(#clip0_342_319)">
<path d="M18.1425 21.7678C8.45344 21.7678 0.598633 29.3275 0.598633 38.855C0.598633 52.028 18.1909 59.019 18.1425 58.9988C18.0941 59.019 35.6864 52.028 35.6864 38.855C35.6864 29.3275 27.8315 21.7678 18.1425 21.7678ZM18.1425 45.7711C16.829 45.7709 15.5451 45.3876 14.4531 44.6699C13.3611 43.9522 12.5101 42.9322 12.0076 41.7388C11.5052 40.5455 11.3738 39.2325 11.6302 37.9657C11.8866 36.699 12.5192 35.5355 13.4481 34.6223C14.3769 33.7091 15.5603 33.0872 16.8485 32.8353C18.1367 32.5835 19.472 32.7129 20.6855 33.2072C21.8989 33.7015 22.9361 34.5385 23.6658 35.6125C24.3955 36.6864 24.785 37.9489 24.785 39.2405C24.785 40.0982 24.6131 40.9475 24.2793 41.7399C23.9455 42.5323 23.4562 43.2523 22.8394 43.8588C22.2225 44.4652 21.4903 44.9462 20.6844 45.2743C19.8785 45.6024 19.0147 45.7712 18.1425 45.7711Z" fill="#E2712F"/>
<path d="M22.093 0C17.9986 0 15.148 2.81258 14.6991 6.12486C9.23996 4.64124 4.96289 8.70901 4.96289 13.211C4.96289 16.6435 7.35611 19.418 10.5624 20.3187C13.1432 21.0432 17.7893 20.5043 17.7893 20.5043C17.7663 19.3942 18.8056 18.1759 20.4075 17.067C24.9653 13.913 28.5334 12.427 29.0851 8.12722C29.661 3.63827 26.2636 0 22.093 0Z" fill="#529B5F"/>
</g>
<defs>
<clipPath id="clip0_342_319">
<rect width="36" height="59" fill="white"/>
</clipPath>
</defs>
</svg>
