<svg width="29" height="41" viewBox="0 0 29 41" xmlns="http://www.w3.org/2000/svg">
<path d="M17.5 8C21.6421 8 25 11.3579 25 15.5V19.5C25 21.433 23.433 23 21.5 23C19.567 23 18.1336 21.299 17.1055 19.6621C16.4647 18.642 15.535 18 14.5 18C13.465 18 12.5353 18.642 11.8945 19.6621C10.8664 21.299 9.433 23 7.5 23C5.567 23 4 21.433 4 19.5V15.5C4 11.3579 7.35786 8 11.5 8H17.5ZM14.832 10.4688C14.6399 10.0226 13.9752 10.0449 13.8135 10.5029L13.7871 10.6084L13.4541 12.6504H11.8525L10.8203 10.4697L10.7842 10.4092C10.6866 10.2789 10.5074 10.2306 10.3545 10.3027C10.2017 10.3751 10.1254 10.5441 10.1641 10.7021L10.1875 10.7695L11.0781 12.6504H9.97754C9.78435 12.6504 9.62811 12.8069 9.62793 13C9.6281 13.1932 9.78434 13.3506 9.97754 13.3506H11.4092L12.6172 15.9023C12.8483 16.3897 13.5702 16.2882 13.6572 15.7559L14.0488 13.3506H14.7949L15.3701 15.8164L15.3994 15.9082C15.5781 16.3399 16.2168 16.3659 16.4121 15.9072L17.499 13.3506H18.8623L18.9326 13.3428C19.0918 13.31 19.2118 13.1688 19.2119 13C19.2118 12.8312 19.0918 12.69 18.9326 12.6572L18.8623 12.6504H17.7969L18.6025 10.7568C18.6781 10.5791 18.5945 10.3727 18.417 10.2969C18.2615 10.231 18.0846 10.2862 17.9922 10.4199L17.958 10.4824L17.0361 12.6504H15.3506L14.8652 10.5713L14.832 10.4688ZM16.7383 13.3506L15.9473 15.21L15.5137 13.3506H16.7383ZM13.3398 13.3506L13.043 15.167L12.1836 13.3506H13.3398ZM14.6318 12.6504H14.1631L14.3555 11.4678L14.6318 12.6504Z" fill="currentColor"/>
<path d="M5.26894 33.624H6.05294V33.736C6.05294 34.0773 5.99427 34.4107 5.87694 34.736C5.7596 35.0613 5.57827 35.352 5.33294 35.608C5.0876 35.864 4.7756 36.0587 4.39694 36.192L3.93294 35.408C4.23694 35.2907 4.48494 35.144 4.67694 34.968C4.87427 34.7867 5.02094 34.5893 5.11694 34.376C5.21827 34.1573 5.26894 33.944 5.26894 33.736V33.624ZM5.49294 33.624H6.27694V33.736C6.27694 33.944 6.32494 34.1493 6.42094 34.352C6.52227 34.5493 6.6716 34.7307 6.86894 34.896C7.0716 35.056 7.3196 35.1867 7.61294 35.288L7.16494 36.072C6.78094 35.9493 6.4636 35.768 6.21294 35.528C5.9676 35.288 5.78627 35.0133 5.66894 34.704C5.5516 34.3947 5.49294 34.072 5.49294 33.736V33.624ZM4.14094 33H7.38894V33.824H4.14094V33ZM5.26894 32.336H6.27694V33.544H5.26894V32.336ZM9.24494 32.304H10.2609V36.184H9.24494V32.304ZM8.34894 33.832H9.53294V34.664H8.34894V33.832ZM7.70894 32.44H8.70094V36.136H7.70894V32.44ZM5.22094 36.456H10.2609V38.392H6.29294V39.336H5.23694V37.656H9.21294V37.248H5.22094V36.456ZM5.23694 38.84H10.5009V39.64H5.23694V38.84ZM16.2363 32.304H17.3003V37.76H16.2363V32.304ZM12.3403 38.728H17.4843V39.584H12.3403V38.728ZM12.3403 37.312H13.4043V39.168H12.3403V37.312ZM11.5323 35.968H12.1723C12.6896 35.968 13.1456 35.9627 13.5403 35.952C13.935 35.9413 14.2976 35.92 14.6283 35.888C14.9643 35.856 15.3003 35.808 15.6363 35.744L15.7403 36.584C15.399 36.648 15.055 36.6987 14.7083 36.736C14.3616 36.768 13.9856 36.792 13.5803 36.808C13.175 36.8187 12.7056 36.824 12.1723 36.824H11.5323V35.968ZM11.5163 32.784H14.9323V35.16H12.5723V36.208H11.5323V34.368H13.8763V33.632H11.5163V32.784ZM20.1317 33.472H20.9797V34.304C20.9797 34.7307 20.9344 35.1493 20.8437 35.56C20.7584 35.9707 20.6277 36.3573 20.4517 36.72C20.281 37.0773 20.065 37.3947 19.8037 37.672C19.5424 37.944 19.2384 38.16 18.8917 38.32L18.2837 37.48C18.593 37.336 18.8624 37.1493 19.0917 36.92C19.3264 36.6907 19.5184 36.4347 19.6677 36.152C19.8224 35.864 19.937 35.5627 20.0117 35.248C20.0917 34.928 20.1317 34.6133 20.1317 34.304V33.472ZM20.3637 33.472H21.2037V34.304C21.2037 34.5973 21.241 34.896 21.3157 35.2C21.3957 35.4987 21.5104 35.784 21.6597 36.056C21.809 36.3227 21.9984 36.5627 22.2277 36.776C22.457 36.9893 22.729 37.16 23.0437 37.288L22.4597 38.136C22.1077 37.9813 21.801 37.7733 21.5397 37.512C21.2784 37.2507 21.0597 36.9493 20.8837 36.608C20.7077 36.2667 20.577 35.9013 20.4917 35.512C20.4064 35.1173 20.3637 34.7147 20.3637 34.304V33.472ZM18.5797 33.008H22.7397V33.888H18.5797V33.008ZM23.4277 32.304H24.4917V39.712H23.4277V32.304Z" fill="currentColor"/>
</svg>
