<svg width="39" height="38" viewBox="0 0 39 38" fill="none" xmlns="http://www.w3.org/2000/svg">
<path fill-rule="evenodd" clip-rule="evenodd" d="M18.2217 8C17.1914 8 16.351 8.81307 16.3072 9.83256H12C10.8954 9.83256 10 10.728 10 11.8326V12.5814C10 13.4971 10.6154 14.269 11.4551 14.5063V28.1581C11.4551 29.2627 12.3505 30.1581 13.4551 30.1581H24.5509C25.6555 30.1581 26.5509 29.2627 26.5509 28.1581V14.5063C27.3906 14.269 28.006 13.4971 28.006 12.5814V11.8326C28.006 10.728 27.1106 9.83256 26.006 9.83256H21.6988C21.655 8.81307 20.8146 8 19.7843 8H18.2217ZM24.5509 14.5814H13.4551V28.1581L24.5509 28.1581V14.5814ZM16.3891 11.8326C17.4194 11.8326 18.2598 11.0195 18.3036 10H19.7024C19.7462 11.0195 20.5866 11.8326 21.6169 11.8326H26.006V12.5814L12 12.5814V11.8326H16.3891ZM15.8503 14.8721C16.4026 14.8721 16.8503 15.3198 16.8503 15.8721V26.4093C16.8503 26.9616 16.4026 27.4093 15.8503 27.4093C15.298 27.4093 14.8503 26.9616 14.8503 26.4093V15.8721C14.8503 15.3198 15.298 14.8721 15.8503 14.8721ZM22.6707 15.8721C22.6707 15.3198 22.2229 14.8721 21.6707 14.8721C21.1184 14.8721 20.6707 15.3198 20.6707 15.8721V26.4093C20.6707 26.9616 21.1184 27.4093 21.6707 27.4093C22.2229 27.4093 22.6707 26.9616 22.6707 26.4093V15.8721Z" fill="#7079F6"/>
</svg>
