<svg width="38" height="38" viewBox="0 0 38 38" fill="none" xmlns="http://www.w3.org/2000/svg">
<path d="M3.65762 3.65759C4.185 3.13021 4.99974 3.06514 5.59891 3.46045L5.84244 3.65759L27.4563 25.2715C27.4923 25.3049 27.5276 25.3386 27.5607 25.3759L34.3424 32.1576L34.5396 32.4011C34.9349 33.0003 34.8698 33.815 34.3424 34.3424C33.8151 34.8698 33.0003 34.9349 32.4012 34.5396L32.1576 34.3424L26.1389 28.3237C23.9379 29.4623 21.4904 30.0571 19 30.0424V30.0447L18.9954 30.0424L18.9908 30.0447V30.0424C12.5918 30.0389 7.40853 26.4313 3.42569 19.7932C3.13319 19.3048 3.13317 18.6951 3.42569 18.2068C5.12605 15.3729 7.04556 13.0808 9.20316 11.3879L3.65762 5.84241L3.46048 5.59888C3.06517 4.99971 3.13024 4.18497 3.65762 3.65759ZM11.4065 13.5913C9.6905 14.87 8.07678 16.6593 6.57303 19C10.0851 24.4691 14.2292 26.9553 19 26.9553H19.0093L19.8791 26.9321C21.2368 26.8447 22.5644 26.5225 23.815 25.9998L21.0503 23.2351C20.4163 23.5422 19.7179 23.7128 19 23.7129C17.7509 23.7131 16.553 23.216 15.6695 22.3329C14.7859 21.4497 14.2897 20.2516 14.2895 19.0023C14.2893 18.2838 14.4574 17.5843 14.7649 16.9497L11.4065 13.5913ZM19.0023 7.95532C25.4046 7.95619 30.5901 11.5663 34.5744 18.2068L34.6695 18.3947C34.8618 18.8454 34.8304 19.3657 34.5744 19.7932C33.472 21.6305 32.2764 23.2387 30.9864 24.6035L30.7498 24.8099C30.162 25.2218 29.3458 25.1784 28.8039 24.6661C28.1845 24.0805 28.158 23.1032 28.7436 22.4836L29.1587 22.0314C29.9431 21.1484 30.6921 20.1342 31.4224 18.9977C27.9108 13.5312 23.7697 11.0447 19 11.0447H18.9954C18.1324 11.0425 17.2714 11.1263 16.4256 11.2975C15.5899 11.4667 14.7741 10.9271 14.6049 10.0914C14.4358 9.25622 14.976 8.44281 15.8109 8.27307C16.861 8.0605 17.931 7.95267 19.0023 7.95532ZM17.569 19.7538C17.6444 19.8971 17.7354 20.0338 17.852 20.1504C17.9673 20.2656 18.1025 20.3538 18.2439 20.4287L17.569 19.7538Z" fill="#ACB5BB"/>
</svg>
