<svg width="16" height="16" viewBox="0 0 16 16" fill="none" xmlns="http://www.w3.org/2000/svg">
<mask id="mask0_667_42" style="mask-type:alpha" maskUnits="userSpaceOnUse" x="0" y="0" width="16" height="16">
<rect width="16" height="16" fill="#D9D9D9"/>
</mask>
<g mask="url(#mask0_667_42)">
<path d="M8.00008 10.6666C8.83341 10.6666 9.54175 10.375 10.1251 9.79163C10.7084 9.20829 11.0001 8.49996 11.0001 7.66663C11.0001 6.83329 10.7084 6.12496 10.1251 5.54163C9.54175 4.95829 8.83341 4.66663 8.00008 4.66663C7.16675 4.66663 6.45841 4.95829 5.87508 5.54163C5.29175 6.12496 5.00008 6.83329 5.00008 7.66663C5.00008 8.49996 5.29175 9.20829 5.87508 9.79163C6.45841 10.375 7.16675 10.6666 8.00008 10.6666ZM8.00008 9.46663C7.50008 9.46663 7.07508 9.29163 6.72508 8.94163C6.37508 8.59163 6.20008 8.16663 6.20008 7.66663C6.20008 7.16663 6.37508 6.74163 6.72508 6.39163C7.07508 6.04163 7.50008 5.86663 8.00008 5.86663C8.50008 5.86663 8.92508 6.04163 9.27508 6.39163C9.62508 6.74163 9.80008 7.16663 9.80008 7.66663C9.80008 8.16663 9.62508 8.59163 9.27508 8.94163C8.92508 9.29163 8.50008 9.46663 8.00008 9.46663ZM8.00008 12.6666C6.37786 12.6666 4.90008 12.2138 3.56675 11.3083C2.23341 10.4027 1.26675 9.18885 0.666748 7.66663C1.26675 6.1444 2.23341 4.93052 3.56675 4.02496C4.90008 3.1194 6.37786 2.66663 8.00008 2.66663C9.6223 2.66663 11.1001 3.1194 12.4334 4.02496C13.7667 4.93052 14.7334 6.1444 15.3334 7.66663C14.7334 9.18885 13.7667 10.4027 12.4334 11.3083C11.1001 12.2138 9.6223 12.6666 8.00008 12.6666ZM8.00008 11.3333C9.25564 11.3333 10.4084 11.0027 11.4584 10.3416C12.5084 9.68051 13.3112 8.78885 13.8667 7.66663C13.3112 6.5444 12.5084 5.65274 11.4584 4.99163C10.4084 4.33051 9.25564 3.99996 8.00008 3.99996C6.74453 3.99996 5.59175 4.33051 4.54175 4.99163C3.49175 5.65274 2.68897 6.5444 2.13341 7.66663C2.68897 8.78885 3.49175 9.68051 4.54175 10.3416C5.59175 11.0027 6.74453 11.3333 8.00008 11.3333Z" fill="#ACB5BB"/>
</g>
</svg>
