<svg width="29" height="41" viewBox="0 0 29 41" xmlns="http://www.w3.org/2000/svg">
<path d="M6 25C5.44772 25 5 24.5523 5 24V12.1866C5 11.8607 5.15881 11.5552 5.42557 11.368L13.9256 5.40311C14.2703 5.16118 14.7297 5.16118 15.0744 5.40311L23.5744 11.368C23.8412 11.5552 24 11.8607 24 12.1866V24C24 24.5523 23.5523 25 23 25H17.875C17.3227 25 16.875 24.5523 16.875 24V18.2222C16.875 17.6699 16.4273 17.2222 15.875 17.2222H13.125C12.5727 17.2222 12.125 17.6699 12.125 18.2222V24C12.125 24.5523 11.6773 25 11.125 25H6Z" fill="currentColor"/>
<path d="M11.9243 37.464H17.0443V39.632H11.9243V37.464ZM16.0043 38.248H12.9643V38.84H16.0043V38.248ZM11.4603 32.816H17.5003V33.624H11.4603V32.816ZM14.4923 33.8C15.2923 33.8 15.9056 33.8907 16.3323 34.072C16.759 34.248 16.9723 34.5093 16.9723 34.856C16.9723 35.208 16.759 35.4747 16.3323 35.656C15.9056 35.832 15.2923 35.92 14.4923 35.92C13.703 35.92 13.0923 35.832 12.6603 35.656C12.2283 35.4747 12.0123 35.208 12.0123 34.856C12.0123 34.5093 12.2283 34.248 12.6603 34.072C13.0923 33.8907 13.703 33.8 14.4923 33.8ZM14.4923 34.52C14.039 34.52 13.703 34.5467 13.4843 34.6C13.2656 34.6533 13.1563 34.7387 13.1563 34.856C13.1563 34.9787 13.2656 35.0667 13.4843 35.12C13.703 35.1733 14.039 35.2 14.4923 35.2C14.9563 35.2 15.295 35.1733 15.5083 35.12C15.727 35.0667 15.8363 34.9787 15.8363 34.856C15.8363 34.7387 15.727 34.6533 15.5083 34.6C15.295 34.5467 14.9563 34.52 14.4923 34.52ZM13.9643 32.248H15.0203V33.392H13.9643V32.248ZM11.1403 36.264H17.8443V37.088H11.1403V36.264ZM13.9643 35.664H15.0203V36.696H13.9643V35.664Z" fill="currentColor"/>
</svg>
