<svg width="32" height="32" viewBox="0 0 32 32" fill="current" xmlns="http://www.w3.org/2000/svg">
<path d="M25.6722 1.67929C26.9985 0.35301 29.1491 0.353035 30.4755 1.67929C31.8018 3.00562 31.8018 5.1562 30.4755 6.48254L20.6288 16.3285L30.4755 26.1752C31.8018 27.5015 31.8018 29.6521 30.4755 30.9784C29.1491 32.3047 26.9986 32.3047 25.6722 30.9784L15.8256 21.1318L5.97961 30.9784C4.65327 32.3047 2.5027 32.3047 1.17636 30.9784C-0.149907 29.6521 -0.149957 27.5015 1.17636 26.1752L11.0223 16.3285L1.17636 6.48254C-0.149907 5.1562 -0.149957 3.0056 1.17636 1.67929C2.50267 0.352973 4.65327 0.353023 5.97961 1.67929L15.8256 11.5253L25.6722 1.67929Z" fill="current"/>
</svg>
