<svg width="38" height="37" viewBox="0 0 38 37" fill="none" xmlns="http://www.w3.org/2000/svg">
<path d="M19.0195 8C19.7097 8.00016 20.2695 8.55974 20.2695 9.25C20.2695 9.94026 19.7097 10.4998 19.0195 10.5H11.5V26H19.0195C19.7097 26.0002 20.2695 26.5597 20.2695 27.25C20.2695 27.9403 19.7097 28.4998 19.0195 28.5H10.4502C9.64938 28.5 9 27.8506 9 27.0498V9.4502C9 8.64938 9.64938 8 10.4502 8H19.0195ZM22.8467 12.0693C23.3826 11.6342 24.1703 11.716 24.6055 12.252L29.2207 17.9355C29.6016 18.4047 29.5919 19.0796 29.1982 19.5381L24.583 24.9141C24.1334 25.4378 23.3441 25.4984 22.8203 25.0488C22.2965 24.5992 22.2369 23.8099 22.6865 23.2861L25.5293 19.9736H16.7119C16.0216 19.9736 15.4619 19.414 15.4619 18.7236C15.4619 18.0333 16.0216 17.4736 16.7119 17.4736H25.625L22.6641 13.8271C22.2291 13.2913 22.3109 12.5045 22.8467 12.0693Z" fill="#7079F6"/>
</svg>
