<svg width="48" height="47" viewBox="0 0 48 47" fill="none" xmlns="http://www.w3.org/2000/svg">
<mask id="mask0_342_314" style="mask-type:alpha" maskUnits="userSpaceOnUse" x="0" y="0" width="48" height="47">
<rect width="48" height="47" fill="#D9D9D9"/>
</mask>
<g mask="url(#mask0_342_314)">
<path d="M38.7693 5.64001C40.8085 5.64002 42.4617 7.32342 42.4617 9.40001V39.48C42.4617 41.5566 40.8085 43.24 38.7693 43.24H9.23088C7.19168 43.24 5.53857 41.5566 5.53857 39.48V9.40001C5.53857 7.32342 7.19168 5.64001 9.23088 5.64001H38.7693ZM24.166 13.7897C22.7999 13.7897 21.5168 14.0529 20.3168 14.5792C19.1353 15.0868 18.0916 15.8111 17.187 16.7511C16.3011 17.6722 15.6085 18.7528 15.1101 19.9934C14.6116 21.2154 14.3637 22.5412 14.3637 23.97C14.3637 25.3987 14.6117 26.7335 15.1101 27.9742C15.6084 29.1959 16.3012 30.2766 17.187 31.2165C18.0916 32.1377 19.1353 32.862 20.3168 33.3884C21.5168 33.896 22.7998 34.1503 24.166 34.1503C24.9781 34.1503 25.7534 34.0467 26.4917 33.84C27.2485 33.652 27.96 33.3802 28.6245 33.023L30.1191 34.8828L33.1389 34.0089L30.9791 31.3303C31.9204 30.4092 32.6491 29.3181 33.166 28.0586C33.7013 26.7804 33.9683 25.4175 33.9683 23.97C33.9683 22.5412 33.7203 21.2154 33.2219 19.9934C32.7234 18.7526 32.0207 17.6723 31.1161 16.7511C30.2301 15.8113 29.1878 15.0868 27.9881 14.5792C26.8066 14.0528 25.5321 13.7898 24.166 13.7897ZM24.166 16.8356C25.0706 16.8356 25.9111 17.0145 26.6864 17.3717C27.4615 17.7288 28.1353 18.2359 28.7074 18.8936C29.2982 19.5328 29.7512 20.2852 30.065 21.15C30.3972 22.0147 30.5626 22.9549 30.5626 23.97C30.5626 24.9098 30.4144 25.7835 30.1191 26.5917C29.8422 27.4001 29.4547 28.1157 28.9562 28.7361L27.2129 26.5917L24.193 27.4675L26.6305 30.4839C26.2616 30.6906 25.8649 30.8503 25.4406 30.9631C25.0345 31.0571 24.609 31.1045 24.166 31.1045C23.2614 31.1045 22.4209 30.9256 21.6455 30.5684C20.8705 30.2112 20.1881 29.7129 19.5975 29.0739C19.0252 28.416 18.5722 27.6548 18.2399 26.79C17.9076 25.9252 17.7405 24.9852 17.7405 23.97C17.7405 22.9548 17.9076 22.0148 18.2399 21.15C18.5722 20.2852 19.0252 19.5328 19.5975 18.8936C20.188 18.2361 20.8706 17.7287 21.6455 17.3717C22.4209 17.0145 23.2614 16.8356 24.166 16.8356Z" fill="#7079F6"/>
</g>
</svg>
