<svg width="44" height="44" viewBox="0 0 44 44" fill="none" xmlns="http://www.w3.org/2000/svg">
<mask id="mask0_342_324" style="mask-type:alpha" maskUnits="userSpaceOnUse" x="0" y="0" width="44" height="44">
<rect width="44" height="44" fill="#D9D9D9"/>
</mask>
<g mask="url(#mask0_342_324)">
<path d="M11 40.3333C9.47222 40.3333 8.17361 39.7986 7.10417 38.7292C6.03472 37.6597 5.5 36.3611 5.5 34.8333V29.3333H11V3.66666L13.75 6.41666L16.5 3.66666L19.25 6.41666L22 3.66666L24.75 6.41666L27.5 3.66666L30.25 6.41666L33 3.66666L35.75 6.41666L38.5 3.66666V34.8333C38.5 36.3611 37.9653 37.6597 36.8958 38.7292C35.8264 39.7986 34.5278 40.3333 33 40.3333H11ZM33 36.6667C33.5194 36.6667 33.9549 36.491 34.3063 36.1396C34.6576 35.7882 34.8333 35.3528 34.8333 34.8333V9.16666H14.6667V29.3333H31.1667V34.8333C31.1667 35.3528 31.3424 35.7882 31.6938 36.1396C32.0451 36.491 32.4806 36.6667 33 36.6667ZM16.5 16.5V12.8333H27.5V16.5H16.5ZM16.5 22V18.3333H27.5V22H16.5ZM31.1667 16.5C30.6472 16.5 30.2118 16.3243 29.8604 15.9729C29.509 15.6215 29.3333 15.1861 29.3333 14.6667C29.3333 14.1472 29.509 13.7118 29.8604 13.3604C30.2118 13.009 30.6472 12.8333 31.1667 12.8333C31.6861 12.8333 32.1215 13.009 32.4729 13.3604C32.8243 13.7118 33 14.1472 33 14.6667C33 15.1861 32.8243 15.6215 32.4729 15.9729C32.1215 16.3243 31.6861 16.5 31.1667 16.5ZM31.1667 22C30.6472 22 30.2118 21.8243 29.8604 21.4729C29.509 21.1215 29.3333 20.6861 29.3333 20.1667C29.3333 19.6472 29.509 19.2118 29.8604 18.8604C30.2118 18.509 30.6472 18.3333 31.1667 18.3333C31.6861 18.3333 32.1215 18.509 32.4729 18.8604C32.8243 19.2118 33 19.6472 33 20.1667C33 20.6861 32.8243 21.1215 32.4729 21.4729C32.1215 21.8243 31.6861 22 31.1667 22ZM11 36.6667H27.5V33H9.16667V34.8333C9.16667 35.3528 9.34236 35.7882 9.69375 36.1396C10.0451 36.491 10.4806 36.6667 11 36.6667Z" fill="#7079F6"/>
</g>
</svg>
