<svg width="29" height="41" viewBox="0 0 29 41" xmlns="http://www.w3.org/2000/svg">
<path d="M13.7068 5.84299C13.7068 6.32691 14.0991 6.7192 14.583 6.7192H14.7951C15.2619 6.7192 15.6404 6.34076 15.6404 5.87392C15.6404 5.36826 16.0827 4.97281 16.5768 5.08036C17.8158 5.35007 18.966 5.85666 19.9774 6.5511C20.3883 6.83326 20.4124 7.41514 20.0601 7.76774C19.7285 8.0996 19.7287 8.63743 20.0606 8.96904L20.2417 9.15004C20.5649 9.47304 21.0888 9.47295 21.4119 9.14983C21.7608 8.80089 22.3385 8.83174 22.6084 9.24486C23.2794 10.272 23.7601 11.4342 24.0004 12.6823C24.0944 13.1708 23.7016 13.6001 23.2042 13.6001C22.738 13.6001 22.3601 13.978 22.3601 14.4441V14.6958C22.3601 15.1575 22.7343 15.5317 23.196 15.5317C23.692 15.5317 24.0819 15.9624 23.9831 16.4484C23.7306 17.6906 23.2391 18.8458 22.5593 19.8651C22.2763 20.2895 21.68 20.3177 21.3192 19.9571C20.9825 19.6207 20.4368 19.6206 20.1 19.9569L19.9519 20.1048C19.6149 20.4413 19.6148 20.9874 19.9517 21.3241C20.3125 21.6846 20.2843 22.2809 19.8598 22.5635C18.8428 23.2405 17.6903 23.7299 16.4514 23.9827C15.9327 24.0885 15.4743 23.6712 15.4743 23.1418C15.4743 22.6474 15.0735 22.2465 14.5791 22.2465H14.436C13.9416 22.2465 13.5407 22.6474 13.5407 23.1418C13.5407 23.6712 13.0824 24.0885 12.5637 23.9828C11.3285 23.731 10.1789 23.2442 9.16408 22.5707C8.71073 22.2699 8.68263 21.6337 9.06778 21.2494C9.42862 20.8893 9.42883 20.3048 9.06825 19.9444L8.99993 19.8762C8.6432 19.5197 8.06514 19.5196 7.70829 19.8759C7.32472 20.259 6.6904 20.2272 6.39495 19.7728C5.73317 18.7548 5.25835 17.6047 5.01847 16.3704C4.91447 15.8353 5.34648 15.3667 5.89163 15.3667C6.40492 15.3667 6.82102 14.9506 6.82102 14.4373V14.341C6.82102 13.8401 6.41496 13.434 5.91405 13.434C5.37327 13.434 4.94922 12.9622 5.06538 12.4341C5.33558 11.2056 5.83968 10.0649 6.52888 9.06076C6.83007 8.62193 7.45121 8.59817 7.8277 8.97439C8.18329 9.32972 8.75954 9.32972 9.11512 8.97439L9.21752 8.87207C9.56046 8.52937 9.56045 7.97349 9.21751 7.6308C8.84589 7.25945 8.8805 6.64381 9.32388 6.36201C10.3545 5.70699 11.5176 5.24231 12.7642 5.01587C13.2681 4.92434 13.7068 5.33086 13.7068 5.84299ZM14.5075 9.68698C11.8377 9.6871 9.67378 11.8494 9.67356 14.5171C9.67356 17.1849 11.8376 19.348 14.5075 19.3481C17.1774 19.3479 19.3425 17.1849 19.3425 14.5171C19.3423 11.8494 17.1773 9.68715 14.5075 9.68698Z" fill="currentColor"/>
<path d="M11.3246 33.384H13.1486V34.232H11.3246V33.384ZM12.6766 32.304H13.7486V36.064H12.6766V32.304ZM8.85263 36.368H13.7486V38.368H9.91663V39.296H8.86063V37.6H12.6926V37.192H8.85263V36.368ZM8.86063 38.8H13.9566V39.632H8.86063V38.8ZM9.23662 32.536H10.1006V33.072C10.1006 33.5307 10.026 33.9653 9.87663 34.376C9.73263 34.7867 9.50862 35.144 9.20463 35.448C8.90063 35.7467 8.51129 35.9707 8.03662 36.12L7.49262 35.288C7.90329 35.16 8.23662 34.984 8.49262 34.76C8.74863 34.5307 8.93529 34.2693 9.05263 33.976C9.17529 33.6827 9.23662 33.3813 9.23662 33.072V32.536ZM9.45263 32.536H10.3086V33.072C10.3086 33.2853 10.3406 33.4987 10.4046 33.712C10.474 33.9253 10.5753 34.1253 10.7086 34.312C10.842 34.4987 11.0126 34.664 11.2206 34.808C11.434 34.952 11.6846 35.0693 11.9726 35.16L11.4286 35.976C10.9806 35.832 10.61 35.616 10.3166 35.328C10.0233 35.04 9.80463 34.7013 9.66062 34.312C9.52196 33.9227 9.45263 33.5093 9.45263 33.072V32.536ZM18.764 34.088H20.172V34.952H18.764V34.088ZM19.876 32.304H20.948V36.704H19.876V32.304ZM18.436 36.864C18.9587 36.864 19.4093 36.92 19.788 37.032C20.1667 37.144 20.4573 37.3067 20.66 37.52C20.868 37.7333 20.972 37.9893 20.972 38.288C20.972 38.7467 20.7453 39.0987 20.292 39.344C19.8387 39.5947 19.22 39.72 18.436 39.72C17.652 39.72 17.0333 39.5947 16.58 39.344C16.1267 39.0987 15.9 38.7467 15.9 38.288C15.9 37.9893 16.0013 37.7333 16.204 37.52C16.412 37.3067 16.7053 37.144 17.084 37.032C17.4627 36.92 17.9133 36.864 18.436 36.864ZM18.436 37.672C18.116 37.672 17.8467 37.696 17.628 37.744C17.4093 37.7867 17.2413 37.8533 17.124 37.944C17.012 38.0347 16.956 38.1493 16.956 38.288C16.956 38.4267 17.012 38.544 17.124 38.64C17.2413 38.7307 17.4093 38.8 17.628 38.848C17.8467 38.8907 18.116 38.912 18.436 38.912C18.756 38.912 19.0253 38.8907 19.244 38.848C19.4627 38.8 19.628 38.7307 19.74 38.64C19.852 38.544 19.908 38.4267 19.908 38.288C19.908 38.1493 19.852 38.0347 19.74 37.944C19.628 37.8533 19.4627 37.7867 19.244 37.744C19.0253 37.696 18.756 37.672 18.436 37.672ZM16.46 33.04H17.324V33.512C17.324 33.9813 17.2493 34.4293 17.1 34.856C16.9507 35.2827 16.7213 35.6587 16.412 35.984C16.108 36.304 15.7187 36.544 15.244 36.704L14.708 35.864C15.012 35.7627 15.2733 35.6267 15.492 35.456C15.716 35.2853 15.8973 35.096 16.036 34.888C16.18 34.6747 16.2867 34.4507 16.356 34.216C16.4253 33.9813 16.46 33.7467 16.46 33.512V33.04ZM16.684 33.04H17.532V33.504C17.532 33.7973 17.5907 34.0853 17.708 34.368C17.8253 34.6507 18.0067 34.9067 18.252 35.136C18.5027 35.3653 18.8227 35.5467 19.212 35.68L18.692 36.512C18.2333 36.3573 17.8547 36.1307 17.556 35.832C17.2627 35.528 17.044 35.176 16.9 34.776C16.756 34.3707 16.684 33.9467 16.684 33.504V33.04ZM14.996 32.752H18.98V33.592H14.996V32.752Z" fill="currentColor"/>
</svg>
