<svg width="32" height="32" viewBox="0 0 32 32" fill="none" xmlns="http://www.w3.org/2000/svg">
<mask id="mask0_670_139" style="mask-type:alpha" maskUnits="userSpaceOnUse" x="0" y="0" width="32" height="32">
<rect width="32" height="32" fill="#D9D9D9"/>
</mask>
<g mask="url(#mask0_670_139)">
<path d="M16.8335 22.1333C18.5949 22.1333 20.092 21.5208 21.325 20.2958C22.5579 19.0708 23.1744 17.5833 23.1744 15.8333C23.1744 14.0833 22.5579 12.5958 21.325 11.3708C20.092 10.1458 18.5949 9.53333 16.8335 9.53333C15.0721 9.53333 13.575 10.1458 12.342 11.3708C11.1091 12.5958 10.4926 14.0833 10.4926 15.8333C10.4926 17.5833 11.1091 19.0708 12.342 20.2958C13.575 21.5208 15.0721 22.1333 16.8335 22.1333ZM16.8335 19.6133C15.7767 19.6133 14.8784 19.2458 14.1386 18.5108C13.3988 17.7758 13.029 16.8833 13.029 15.8333C13.029 14.7833 13.3988 13.8908 14.1386 13.1558C14.8784 12.4208 15.7767 12.0533 16.8335 12.0533C17.8903 12.0533 18.7886 12.4208 19.5284 13.1558C20.2682 13.8908 20.638 14.7833 20.638 15.8333C20.638 16.8833 20.2682 17.7758 19.5284 18.5108C18.7886 19.2458 17.8903 19.6133 16.8335 19.6133ZM16.8335 26.3333C13.4047 26.3333 10.2812 25.3825 7.46304 23.4808C4.64486 21.5792 2.60168 19.03 1.3335 15.8333C2.60168 12.6367 4.64486 10.0875 7.46304 8.18583C10.2812 6.28416 13.4047 5.33333 16.8335 5.33333C20.2623 5.33333 23.3858 6.28416 26.2039 8.18583C29.0221 10.0875 31.0653 12.6367 32.3335 15.8333C31.0653 19.03 29.0221 21.5792 26.2039 23.4808C23.3858 25.3825 20.2623 26.3333 16.8335 26.3333ZM16.8335 23.5333C19.4873 23.5333 21.9238 22.8392 24.1432 21.4508C26.3625 20.0625 28.0593 18.19 29.2335 15.8333C28.0593 13.4767 26.3625 11.6042 24.1432 10.2158C21.9238 8.82749 19.4873 8.13333 16.8335 8.13333C14.1797 8.13333 11.7432 8.82749 9.52384 10.2158C7.30452 11.6042 5.60774 13.4767 4.4335 15.8333C5.60774 18.19 7.30452 20.0625 9.52384 21.4508C11.7432 22.8392 14.1797 23.5333 16.8335 23.5333Z" fill="#ACB5BB"/>
</g>
</svg>
